<svg version="1.2" xmlns="http://www.w3.org/2000/svg" viewBox="0 0 55 53" width="55" height="53"><style>.a{fill:#4aa1b1}</style><path fill-rule="evenodd" class="a" d="m27.4 53.1q-12.8 0-25.6 0c-1.1 0-1.4-0.3-1.4-1.5q0-14.5 0-29.1c0-0.6 0.1-1 0.6-1.4 0.8-0.6 1.5-1.3 2.3-1.9 0.3-0.2 0.4-0.5 0.4-0.8q-0.1-6.5 0-13c0-1.2 0.3-1.5 1.5-1.5q7.7 0 15.5 0c0.3 0 0.6-0.1 0.9-0.3 1-0.9 2-1.7 3-2.6 1.7-1.5 3.8-1.5 5.5 0q1.5 1.2 2.9 2.5c0.3 0.3 0.6 0.4 1.1 0.4q7.8 0 15.5 0c1.1 0 1.4 0.3 1.4 1.4q0.1 6.5 0 13c0 0.4 0.1 0.6 0.4 0.9 0.8 0.6 1.5 1.2 2.2 1.8 0.5 0.4 0.7 0.9 0.7 1.6q0 6 0 12 0 8.4 0 16.9 0 0.4 0 0.7-0.2 0.8-1 0.9-0.2 0-0.5 0-12.7 0-25.4 0zm-21.6-47.1c0 0.3 0 0.4 0 0.6q0 8.8 0 17.5c0 0.2 0.1 0.5 0.3 0.6q6.4 5.5 12.8 10.9c0.2 0.2 0.6 0.4 0.9 0.4q7.5 0 15.1 0c0.3 0 0.6-0.2 0.9-0.4q6.4-5.4 12.7-10.9c0.2-0.2 0.4-0.5 0.4-0.8q0-8.6 0-17.3 0-0.3 0-0.6c-14.4 0-28.7 0-43.1 0zm44.4 44.9c-0.1-0.1-0.1-0.1-0.1-0.2q-7.2-6.2-14.4-12.3c-0.2-0.2-0.5-0.3-0.7-0.3q-7.7 0-15.3 0c-0.3 0-0.6 0.1-0.8 0.3q-7.1 6.1-14.2 12.2c-0.1 0.1-0.2 0.2-0.3 0.3 15.3 0 30.5 0 45.8 0zm-47.6-26.4c0 8.4 0 16.7 0 25.1 4.9-4.2 9.7-8.4 14.6-12.6-4.9-4.2-9.7-8.3-14.6-12.5zm34.8 12.5c4.9 4.3 9.8 8.4 14.7 12.7 0-8.5 0-16.8 0-25.2-4.9 4.2-9.8 8.4-14.7 12.5zm-7.2-33.1c-0.7-0.6-1.2-1.1-1.8-1.5-0.5-0.4-1.2-0.5-1.8-0.1-0.7 0.4-1.3 1-2 1.5q0.1 0 0.1 0.1c1.8 0 3.5 0 5.5 0zm-27.1 18.3c0.2 0.1 0.3 0.2 0.5 0.4 0-0.3 0-0.6 0-0.9-0.2 0.2-0.3 0.3-0.5 0.5zm26.3 2.3c-0.8 0.5-1.6 0.9-2.5 1-2.6 0.1-4.7-1.8-4.7-4.3-0.1-1.9 0.6-3.5 2-4.8 1.7-1.4 3.4-1.5 5.3-0.5 0.3-0.2 0.6-0.6 0.9-0.7 0.8-0.2 1.4 0.4 1.3 1.3-0.1 1.3-0.3 2.6-0.5 3.8 0 0.7-0.1 1.3-0.2 1.9 0 0.5 0 1.1 0.5 1.3 0.6 0.3 1-0.1 1.4-0.5 0.9-0.9 1.3-2.1 1.3-3.3-0.1-1-0.2-2.1-0.5-3-0.8-2.4-3-3.7-5.8-3.7-3.6 0.1-6.9 3.1-7.3 6.7-0.1 1.1-0.1 2.3 0.2 3.4 0.7 2.8 3.1 4.6 5.9 4.7q2.3 0.1 4.4-0.8 0.1-0.1 0.2-0.1c0.6-0.3 1.2-0.1 1.5 0.5 0.3 0.5 0.1 1.2-0.6 1.4-1.1 0.4-2.2 0.9-3.3 1-3.9 0.6-7-0.6-9.3-4.1-1.7-2.6-1.7-5.5-0.5-8.4 1.2-3.2 3.5-5.5 7-6.2 3.3-0.7 6.5 0 8.6 2.9 2 2.8 2.2 6 0.7 9.2-0.5 0.9-1.2 1.7-2.2 2.2-1.4 0.7-2.5 0.4-3.8-0.9zm-2.9-1.2c1.3 0 2.3-0.8 2.5-2.1q0.1-1 0.3-2.1c0-0.1 0-0.3-0.1-0.4-0.7-1.4-2-1.8-3.3-0.9-1.2 0.8-1.7 2.1-1.6 3.5 0.1 1.1 1.1 2 2.2 2z"/></svg>