<svg version="1.2" xmlns="http://www.w3.org/2000/svg" viewBox="0 0 30 36" width="30" height="36"><style>.a{fill:#71b201}</style><path class="a" d="m26.1 24.8q-0.2 0-0.4 0 0 0.1 0 0.1c0.9 0.9 1.3 2.2 1.3 3.4 0 1.2-0.5 2.3-1.4 3.1q-1 1-2.7 1 0 0-0.1 0c-1.5 0-2.9 0-4.7 0-1.1 0-1.8 0.7-1.9 1.9q0 0.4 0 0.8 0 0.2 0 0.3 0 0.4-0.2 0.6c-0.1 0-0.2 0.1-0.4 0.1q0 0-0.1 0-0.2 0-0.4-0.2-0.2-0.2-0.2-0.5 0-0.3 0-0.6c0-0.4 0-0.9 0.1-1.4 0.3-1.3 1.5-2.3 3-2.3q0.7 0 1.4 0c1.1 0 2.3 0 3.4 0 0.8 0.1 1.5-0.2 2-0.7 0.6-0.6 0.9-1.4 0.9-2.3 0-1.6-1.1-2.9-2.6-3.2q-0.4-0.1-0.7-0.1-5.6 0-11.3 0h-3.5q-0.1 0-0.2 0c-0.1 0.1-0.2 0.1-0.4 0 0-0.1-0.4-0.3-0.4-0.6 0-0.2 0.2-0.5 0.4-0.6 0.1-0.1 0.3-0.1 0.5-0.1q0 0.1 0.1 0.1 3.2 0 6.5 0 5.6 0 11.2 0c1.5 0 2.6-0.9 2.9-2.2 0.3-0.9 0.1-1.9-0.4-2.6-0.6-0.7-1.5-1.1-2.4-1.1-2.9-0.1-5.7 0-8.5 0q-1.7 0-3.5 0h-1.2q-3.6 0-7.2 0 0 0 0 0-0.1 0-0.1 0c-0.1 0-0.3 0-0.4-0.1-0.2-0.1-0.5-0.3-0.4-0.6 0-0.2 0.2-0.5 0.4-0.6 0.1-0.1 0.3 0 0.5 0q0 0 0.1 0 2.3 0 4.7 0 4.9 0 9.8 0c1.6 0 2.9-1.2 3-2.9 0-0.8-0.3-1.6-0.8-2.1-0.6-0.6-1.3-0.9-2.2-0.9-1.5 0-3.1 0-4.7 0q-1 0-2 0-0.1 0-0.1 0c-0.1 0-0.3 0-0.4 0v-0.1c-0.3-0.1-0.5-0.2-0.6-0.5 0-0.2 0.2-0.5 0.5-0.7q0.3-0.1 0.6-0.2 0.2-0.1 0.3-0.1 2-0.9 2.1-3 0-1.4 0-2.8 0-0.7 0-1.3 0 0 0-0.1 0-0.1 0-0.3c0.1-0.4 0.3-0.6 0.7-0.6 0.4 0 0.6 0.3 0.6 0.7v0.3q0 0.7 0 1.5 0 0.3 0 0.6 0 1.2-0.1 2.3-0.1 1.9-1.4 3h0.8q0.6 0 1.2 0 1.2 0 2.5 0 0 0 0 0c1.8 0 3.2 0.9 3.9 2.5 0.7 1.6 0.5 3.1-0.7 4.5q-0.1 0.1-0.1 0.2 0 0 0 0 0.6 0 1.1 0 0.8 0 1.6 0c1.2 0 2.2 0.4 2.9 1.1 0.8 0.7 1.2 1.7 1.3 2.9 0.2 2.1-1.3 4-3.5 4.4zm-12.4 6.6c-0.1 0.7-0.1 1.4-0.1 2.1q0 0.4 0 0.9 0 0.2 0 0.4 0 0.3-0.1 0.7c0 0.3-0.3 0.6-0.6 0.6q0 0 0 0c-0.2 0-0.3-0.1-0.4-0.2-0.1-0.1-0.2-0.2-0.2-0.4v-0.3c-0.1-1.1-0.1-2.3 0-3.5q0.1-1.9 1.6-3.3-0.9 0-1.8 0c-1.7 0-3.3 0-5 0q0 0 0 0c-1.9 0-3.3-0.8-4-2.5-0.7-1.7-0.4-3.3 0.9-4.7q-0.3 0-0.5 0c-2-0.5-3.3-2.2-3.3-4.2 0-2.1 1.4-3.8 3.4-4.1 0.3-0.1 0.6-0.1 0.9-0.1q0.2 0 0.3 0 0.9 0 1.8 0 0.2 0 0.4 0-1.7-1.9-0.9-4.3c0.4-1.6 1.6-2.5 3.2-2.8q0.4-0.1 0.8-0.1 0.3 0 0.6-0.1c1.3-0.2 1.9-1 2-2.4q0-0.5 0-0.9 0.1-0.4 0.1-0.8 0-0.3 0.2-0.5 0.2-0.1 0.5-0.1c0.2 0.1 0.5 0.4 0.5 0.6v0.3c0 0.8 0 1.7-0.2 2.5q-0.4 2.1-2.8 2.6-0.4 0-0.8 0.1-0.3 0-0.6 0c-1.5 0.3-2.6 1.6-2.5 3.1 0.1 1.6 1.3 2.8 2.9 2.8 2.1 0 4.2 0 6.3 0q1.3 0 2.7 0 0.2 0 0.4 0c0.4 0 0.6 0.2 0.7 0.6 0 0.4-0.3 0.6-0.7 0.7q-0.2 0-0.3 0h-0.1-4.4q-5.1 0-10.1 0c-1.3 0-2.3 0.7-2.8 1.9-0.4 1.2-0.1 2.5 0.9 3.3 0.5 0.5 1.1 0.7 2 0.7q0 0 0 0c5.4 0 10.8 0 16.1 0h3.1q0 0 0 0 0.1 0 0.2 0c0.1-0.1 0.3-0.1 0.4 0 0.2 0.1 0.5 0.4 0.5 0.6 0 0.3-0.3 0.5-0.5 0.6-0.2 0.1-0.3 0.1-0.4 0q-0.1 0-0.2 0h-4.8q-6 0-12 0c-1.3 0-2.5 0.9-2.8 2.2-0.4 1.2 0.1 2.6 1.2 3.3 0.5 0.3 1 0.4 1.8 0.4q0 0 0 0c5.1 0 10.1 0 15 0q0.1 0 0.2 0c0.3 0 0.8 0 0.8 0.7q0 0.2-0.1 0.4c-0.2 0.2-0.4 0.2-0.9 0.2q-0.8 0-1.5 0c-1.1 0-2.3 0.1-3.4 0-2-0.1-3.4 1.5-3.6 3z"/></svg>