<svg version="1.2" xmlns="http://www.w3.org/2000/svg" viewBox="0 0 33 35" width="33" height="35"><style>.a{fill:#71b201}</style><path fill-rule="evenodd" class="a" d="m17.4 29.8c0.3 0.3 0.2 0.7 0 1q-2.2 1.9-4.3 3.8-0.2 0.2-0.5 0.2-0.2 0-0.5-0.2-1.6-1.5-3.3-3-0.6-0.5-1.2-1.1c-1-0.9-2-1.8-3-2.8-2.5-2.2-3.9-5-4.4-8.2q-0.2-0.9-0.2-2c0-4.2 0-8.6 0-12.7v-3.7c0-0.6 0.2-0.8 0.8-0.8h23.6c0.6 0 0.9 0.2 0.9 0.8q0 2.5 0 5v0.2q0 0.1-0.1 0.2c0 0.3-0.3 0.6-0.6 0.6q0 0 0 0c-0.3 0-0.6-0.3-0.6-0.6q0-0.1 0-0.3 0 0 0-0.1v-4.5h-22.7v0.1q0 2.4 0 4.8c0 3.6 0 7.4 0 11.1 0 3.6 1.4 6.7 4.2 9.2 1.6 1.5 3.3 3 4.9 4.5q1 0.9 2 1.8 0.1 0.1 0.2 0.2l2.3-2q0.8-0.8 1.6-1.5 0.2-0.2 0.5-0.2 0.3 0 0.4 0.2zm3.6-23.9v-1.1h-16.7v3.9q0 4.3 0 8.6c0 2.9 1.1 5.3 3.1 7.1q1.8 1.6 3.5 3.2 0.8 0.7 1.7 1.5 0 0 0 0.1l0.2-0.2q0.2-0.1 0.4-0.3 1-0.9 1.9-1.8l0.9-0.8q0.3-0.3 0.6-0.3 0.3 0.1 0.4 0.2c0.3 0.3 0.2 0.7-0.1 1q-0.9 0.9-1.9 1.7-0.9 0.9-1.8 1.7-0.3 0.3-0.6 0.3-0.2 0-0.5-0.3-0.8-0.7-1.6-1.4c-1.4-1.3-2.8-2.6-4.1-3.8q-2.5-2.3-3.2-5.5-0.2-1.1-0.2-2.2c0-3.3 0-6.6 0-9.9q0-1.6 0-3.2c0-0.6 0.2-0.8 0.8-0.8q8.8 0 17.6 0c0.6 0 0.9 0.2 0.9 0.8v1q0 1.4 0 2.7-0.1 0.4-0.3 0.6-0.3 0.2-0.6 0.1-0.4-0.2-0.4-0.7 0-1.1 0-2.2zm11.5 10.6c-0.2 0.6-0.5 1.1-1.1 1.4-0.5 0.3-1.1 0.3-1.7 0.1q-1-0.2-1.4-1.1c0-0.1-0.1-0.1-0.2-0.1q-1.1 0.2-2.3 0.3-0.5 0.1-0.9 0.1-0.1 0.1-0.2 0.1-0.1 0-0.1 0 0.1 1.7-0.8 3.3l0.2 0.2q0.5 0.5 1 0.9 0 0.1 0.1 0c0.9-0.4 1.8-0.1 2.4 0.7 0.5 0.7 0.5 1.7-0.2 2.3-0.3 0.5-0.8 0.7-1.4 0.7q-0.5 0-0.9-0.3c-0.8-0.4-1.2-1.3-0.9-2.2 0-0.1 0-0.2-0.1-0.3q-0.4-0.4-0.8-0.8-0.1-0.1-0.2-0.2-0.1 0.1-0.3 0.2-0.3 0.3-0.7 0.6-0.2 0.2-0.5 0.3c-0.4 0.2-0.7 0.1-0.9-0.2-0.2-0.3-0.1-0.7 0.3-0.9q1.3-0.7 1.9-2 1.1-2.3-0.1-4.5-0.1-0.2-0.1-0.5 0.1-0.3 0.3-0.4 0.3-0.2 0.5-0.1 0.3 0.1 0.5 0.4c0.2 0.5 0.4 1 0.5 1.4 0.1 0.1 0.1 0.1 0.2 0.1q1.6-0.2 3.3-0.4c0.2-0.1 0.2-0.1 0.2-0.2 0.1-0.6 0.5-1.1 1-1.4 0.5-0.4 1.2-0.5 1.8-0.3 0.6 0.1 1.1 0.5 1.4 1 0.3 0.6 0.4 1.2 0.2 1.8zm-2.2-1.6q0 0 0 0c-0.2 0-0.5 0.1-0.7 0.3-0.2 0.2-0.3 0.4-0.3 0.7 0 0.5 0.5 0.9 1 0.9q0.4 0 0.7-0.2 0.3-0.3 0.3-0.7c0-0.6-0.4-1-1-1zm-4.8 8.1q-0.2 0.2-0.2 0.5c0 0.3 0.3 0.6 0.6 0.6q0.3 0 0.5-0.2 0.1-0.2 0.2-0.4 0-0.3-0.2-0.5-0.2-0.2-0.5-0.2 0 0 0 0-0.2 0-0.4 0.2zm-8.2 0.3q-0.5-0.1-0.9-0.3-0.3-0.1-0.7-0.2-0.1-0.1-0.2-0.1l-0.6 0.8q-0.1 0.1-0.1 0.1c-0.2 0.2-0.3 0.5-0.2 0.8 0.4 0.7 0.1 1.6-0.6 2.1q-0.5 0.2-1 0.2c-0.4 0-0.8-0.1-1.2-0.4-0.6-0.5-0.7-1.4-0.4-2.1 0.3-0.7 1.1-1.1 1.9-1 0.1 0.1 0.2 0.1 0.2-0.1q0.4-0.4 0.8-0.9 0.1-0.2 0.2-0.3-0.8-0.7-1.2-1.6-1.1-2-0.6-4.3c0.1-0.4 0.5-0.6 0.8-0.5q0.3 0 0.4 0.2 0.2 0.3 0.1 0.6-0.4 1.6 0.3 3.1 0.9 2.1 3.2 2.7 0.6 0.1 0.6 0.6 0 0.3-0.3 0.5-0.2 0.2-0.5 0.1zm-4.3 2.2c0.3-0.1 0.5-0.3 0.5-0.5q0-0.2-0.2-0.4-0.1-0.1-0.3-0.1 0 0 0 0-0.2 0-0.4 0.1-0.1 0.2-0.1 0.4c0 0.2 0.2 0.5 0.5 0.5q0 0 0 0zm0.1-13.2c0 0.2 0 0.3 0.2 0.4q1.3 0.9 2.6 1.8 0.5 0.3 0.9 0.6c0.4 0.3 0.5 0.7 0.3 1q-0.2 0.2-0.4 0.2-0.1 0.1-0.1 0.1-0.3 0-0.5-0.2l-0.3-0.2c-1.1-0.8-2.2-1.5-3.3-2.3-0.1-0.1-0.2-0.1-0.4 0-0.9 0.6-2.1 0.6-3-0.1-0.8-0.7-1.2-1.8-0.8-2.9 0.4-1 1.3-1.7 2.4-1.7q0 0 0 0c0.8 0 1.6 0.4 2.1 1 0.5 0.7 0.6 1.5 0.3 2.3zm-2.4-2q0 0 0 0c-0.3 0-0.6 0.1-0.9 0.4q-0.3 0.3-0.4 0.9c0 0.3 0.2 0.6 0.4 0.9q0.4 0.3 0.9 0.3 0 0 0 0c0.4 0 0.7-0.1 0.9-0.3q0.4-0.4 0.4-0.9c0-0.7-0.6-1.3-1.3-1.3zm7 2.5q-0.8 0.1-1.5 0.5v0.1q-0.1 0-0.1 0-0.2 0.1-0.4 0.1-0.4 0-0.6-0.3-0.1-0.2 0-0.5 0.1-0.3 0.3-0.4 0.6-0.3 1.2-0.5 0.2-0.1 0.4-0.2 0.1 0 0.1 0 0.1 0 0.1 0l-0.2-1.2q0-0.1 0-0.3-0.1-0.3-0.1-0.6c0-0.1-0.1-0.1-0.2-0.2-0.7-0.2-1.2-0.7-1.3-1.5-0.2-0.7 0.1-1.4 0.7-1.8 0.4-0.4 0.9-0.5 1.4-0.4 0.6 0.1 1 0.4 1.3 0.8 0.3 0.4 0.4 0.9 0.3 1.4-0.1 0.6-0.4 1-0.8 1.3-0.1 0.1-0.2 0.1-0.1 0.3 0 0.5 0.1 1.2 0.2 1.9 0 0.1 0.1 0.1 0.2 0.1q1 0 2 0.3 0.4 0.2 0.4 0.6c0 0.3-0.1 0.5-0.3 0.6-0.2 0.1-0.5 0.1-0.6 0q-1.2-0.3-2.4-0.1zm-0.4-5.9q-0.3 0-0.5 0.1-0.2 0.2-0.2 0.5c0 0.3 0.3 0.6 0.7 0.6q0.2 0 0.4-0.2 0.2-0.1 0.2-0.4 0-0.3-0.2-0.5-0.2-0.1-0.4-0.1 0 0 0 0zm4.6 21c-0.1 1.1-1 1.8-2 1.8q0 0-0.1 0c-0.9 0-1.7-0.6-1.9-1.5-0.2-0.9 0.2-1.9 1-2.3 0.1-0.1 0.1-0.1 0.1-0.2q-0.2-1.4-0.4-2.8l-0.1-0.8q0-0.1 0-0.2c-0.1-0.4 0.2-0.6 0.5-0.7 0.4 0 0.7 0.2 0.7 0.6q0.1 0.5 0.2 1 0 0.2 0 0.4 0.1 0.3 0.1 0.7 0.1 0.8 0.2 1.6c0 0.1 0.1 0.2 0.2 0.2 1 0.3 1.6 1.2 1.5 2.2zm-1.3-0.2c0-0.4-0.3-0.8-0.7-0.8q0 0 0 0c-0.4 0-0.8 0.3-0.8 0.8q0 0.3 0.2 0.5 0.3 0.2 0.6 0.2 0 0 0 0 0.3 0 0.5-0.2 0.2-0.2 0.2-0.5zm3.6-19.6c0.5 0 0.9 0.2 1.3 0.6 0.3 0.3 0.5 0.8 0.5 1.3 0 0.5-0.3 1-0.6 1.3-0.4 0.3-0.9 0.5-1.4 0.4-0.1 0-0.2 0-0.2 0.1q-0.8 1.2-1.6 2.4l-0.2 0.4q-0.3 0.4-0.6 0.4-0.2 0-0.3 0-0.3-0.2-0.3-0.4-0.1-0.3 0.1-0.6 0.5-0.9 1.1-1.8l0.4-0.6q0-0.1 0.1-0.1c0.2-0.3 0.2-0.5 0.1-0.8-0.3-0.6-0.3-1.2 0-1.7 0.3-0.6 0.9-0.9 1.6-0.9zm0 1.3q-0.2 0-0.4 0.1-0.1 0.2-0.1 0.4c0 0.3 0.2 0.5 0.5 0.5q0 0 0 0 0.2 0 0.3-0.1 0.2-0.2 0.2-0.4c0-0.3-0.2-0.5-0.5-0.5q0 0 0 0z"/></svg>