<svg version="1.2" xmlns="http://www.w3.org/2000/svg" viewBox="0 0 57 58" width="57" height="58"><style>.a{fill:#ce8e02}</style><path fill-rule="evenodd" class="a" d="m44.9 57.4c-3.1-0.1-6.1-0.8-9-2-4.5-1.8-8.5-4.5-12.3-7.5q-8.3-6.8-14.9-15.2c-2.7-3.5-5.1-7.3-6.8-11.5-1.1-2.8-1.8-5.8-1.8-9 0-1.7 0.2-3.4 0.9-5q0.8-1.9 2.5-3 2.5-1.5 5-3c1.7-1 3.5-0.5 4.7 1.2q3.2 4.8 6.4 9.6c0.4 0.6 0.8 1.2 1.2 1.9 0.8 1.4 0.5 3-0.7 4-1.2 1.1-2.6 2.1-3.9 3.1-1.3 1-1.3 1.5-0.6 2.9 1.9 3.5 4.3 6.4 7 9.2 2.5 2.4 4.9 4.9 7.8 6.8 1.2 0.8 2.4 1.5 3.7 2.2 0.7 0.4 1.4 0.2 2-0.5q1.5-1.9 3-3.8c1.3-1.8 3.1-2.1 5-0.9q5.4 3.7 10.9 7.3c1.1 0.8 1.8 1.8 1.7 3.2-0.1 0.6-0.3 1.1-0.5 1.6-0.9 1.6-1.9 3.1-2.8 4.7-1.2 1.9-2.9 2.9-5.1 3.3-1.1 0.2-2.3 0.3-3.4 0.4zm0.2-1.8c1.1-0.2 2.2-0.4 3.3-0.6 1.3-0.2 2.4-0.9 3.2-2.1q1.5-2.4 2.9-4.8c0.5-0.9 0.3-1.7-0.5-2.2q-1.1-0.8-2.2-1.5-4.4-3-8.8-5.9c-0.5-0.3-1.1-0.6-1.6-0.3-0.3 0.2-0.6 0.4-0.8 0.7-1 1.3-2 2.6-3 3.9-1.2 1.4-2.8 1.8-4.3 1-1.3-0.7-2.6-1.4-3.8-2.2-3.6-2.4-6.6-5.5-9.6-8.7-2.4-2.5-4.5-5.3-6.1-8.4-1-1.8-0.7-3.5 0.9-4.7q2-1.5 3.9-3c0.9-0.7 1-1.4 0.3-2.4q-3.6-5.5-7.3-10.9c-0.6-1-1.3-1.1-2.3-0.6q-2.2 1.4-4.4 2.7-2 1.1-2.5 3.4c-0.6 2.6-0.5 5.2 0.1 7.8 0.9 3.7 2.6 7.2 4.6 10.4 2.5 3.9 5.5 7.5 8.7 10.9 3.2 3.3 6.6 6.5 10.3 9.3 2.9 2.3 6 4.3 9.4 5.8 3.1 1.4 6.2 2.2 9.6 2.4zm-12-47.3c5.5 0.4 10 2.7 13.3 7 2.4 3.2 3.6 6.8 3.7 10.7 0 0.5-0.1 0.8-0.6 1-0.3 0.2-0.7 0.2-1-0.2-0.1-0.2-0.3-0.5-0.3-0.8 0-1.5-0.2-2.9-0.6-4.3q-1.2-4.1-4.3-7c-2.2-2.2-4.8-3.6-7.8-4.2-0.7-0.2-1.4-0.2-2.1-0.3-0.4 0-0.9 0-1.4-0.1-0.4-0.1-0.7-0.4-0.7-0.9-0.1-0.4 0.2-0.8 0.6-0.9q0.3 0 0.7 0 0.2 0 0.5 0zm-0.4 5.6c5.3 0.3 10.1 4 11.4 9.4 0.2 0.9 0.3 1.8 0.3 2.7 0.1 0.7-0.3 1.1-0.9 1.1-0.5 0-0.9-0.4-0.9-1-0.1-2-0.6-3.9-1.7-5.5q-2.5-3.9-7-4.6c-0.5-0.1-0.9-0.1-1.4-0.2q-0.2 0-0.5-0.1c-0.5 0-0.8-0.4-0.7-0.9 0-0.4 0.3-0.8 0.8-0.8 0.2-0.1 0.5-0.1 0.6-0.1zm-0.2 5.7c3.4 0.1 6.2 3 6.3 6.4 0 0.6-0.3 1.1-0.9 1.1-0.5 0.1-0.9-0.3-1-1-0.1-1.4-0.6-2.7-1.8-3.6q-1.1-0.9-2.5-1-0.3 0-0.6-0.1c-0.5-0.1-0.8-0.5-0.7-1 0-0.5 0.4-0.8 0.9-0.8q0.2 0 0.3 0z"/></svg>