<svg version="1.2" xmlns="http://www.w3.org/2000/svg" viewBox="0 0 50 60" width="50" height="60"><style>.a{fill:#71b201}</style><path class="a" d="m44.2 40.6q-0.4 0-0.8 0 0 0.1 0.1 0.2c1.4 1.5 2.2 3.5 2.1 5.6 0 2.1-0.9 3.9-2.3 5.2-1.2 1.2-2.7 1.7-4.6 1.7q0 0-0.1 0c-2.5 0-4.9 0-7.9 0-1.9 0-3.1 1.2-3.2 3.1q0 0.7 0 1.4 0 0.3 0 0.6 0 0.5-0.3 0.8c-0.1 0.2-0.4 0.3-0.8 0.3q0 0 0 0-0.5 0-0.8-0.3-0.2-0.3-0.2-0.9 0-0.4 0-0.9c0-0.8 0-1.6 0.2-2.4 0.5-2.3 2.4-3.9 4.9-3.9q1.2 0 2.3 0c1.9 0 3.8 0 5.8 0.1 1.3 0 2.5-0.4 3.4-1.3 1-1 1.5-2.4 1.5-3.9-0.1-2.7-1.9-4.8-4.5-5.3-0.3-0.1-0.7-0.1-1-0.1q-9.5 0-19 0h-6q0 0-0.2 0c-0.2 0-0.4 0.1-0.7-0.1-0.1-0.1-0.7-0.4-0.7-0.9 0-0.5 0.4-0.9 0.7-1 0.2-0.2 0.5-0.2 0.8-0.2q0.1 0.1 0.2 0.1 5.4 0 10.9 0 9.4 0 18.8 0c2.4 0 4.3-1.4 4.9-3.6 0.4-1.6 0.1-3.2-0.8-4.4-1-1.2-2.4-1.9-4.1-1.9-4.7 0-9.5 0-14.1 0q-2.9 0-5.9 0h-2q-6 0-12.1 0 0 0 0 0 0 0-0.1 0c-0.2 0-0.5 0-0.7-0.1-0.3-0.2-0.8-0.6-0.7-1 0-0.4 0.5-0.8 0.7-1 0.2-0.1 0.5-0.1 0.8-0.1q0.1 0 0.2 0 3.9 0 7.9 0 8.2 0 16.4 0c2.8 0 4.9-2 5-4.7 0-1.4-0.5-2.7-1.4-3.7-0.9-0.9-2.2-1.4-3.5-1.4-2.7 0-5.3 0-7.9 0q-1.8 0-3.5 0-0.1 0-0.2 0c-0.1 0-0.3 0-0.5-0.1h-0.1c-0.4-0.2-0.9-0.5-0.9-0.8-0.1-0.5 0.3-1 0.7-1.2 0.3-0.2 0.7-0.3 1-0.4q0.4-0.1 0.6-0.3 3.4-1.3 3.5-5c0-1.5 0-3.1 0-4.7q0-1 0-2 0-0.1 0-0.2 0-0.3 0.1-0.5c0-0.7 0.5-1.1 1.1-1.1 0.6 0.1 1 0.5 1 1.2v0.5q0.1 1.2 0 2.5 0 0.5 0 1c0 1.3 0 2.7-0.1 4q-0.2 3-2.4 4.9h1.3q1 0 2 0c1.4 0 2.8 0 4.2 0q0.1 0 0.1 0c3 0 5.2 1.4 6.4 4.1 1.2 2.7 0.8 5.4-1.1 7.7q-0.1 0.1-0.2 0.2 0 0 0 0 0.9 0 1.9 0 1.3 0 2.7 0c1.9 0.1 3.6 0.7 4.8 1.9 1.3 1.2 2 2.9 2.2 4.8 0.3 3.5-2.2 6.8-5.8 7.5zm-20.9 11c-0.2 1.2-0.2 2.3-0.2 3.5q0 0.7 0 1.5 0 0.3 0 0.6c0 0.4 0 0.9-0.1 1.3 0 0.4-0.6 1-1 1q0 0 0 0c-0.3 0-0.6-0.3-0.7-0.4-0.1-0.1-0.4-0.3-0.4-0.6v-0.5c0-1.9-0.1-3.9 0.1-5.8q0.2-3.2 2.6-5.6-1.5 0-3 0c-2.8 0-5.5 0-8.3 0q0 0-0.1 0c-3.1 0-5.4-1.4-6.6-4.2-1.2-2.8-0.7-5.5 1.4-7.8q-0.4-0.1-0.8-0.2c-3.3-0.7-5.5-3.6-5.5-6.9 0.1-3.5 2.4-6.3 5.7-7 0.5-0.1 1.1-0.1 1.6-0.1q0.2 0 0.4 0c1 0 2 0 3 0q0.3 0 0.7 0c-1.9-2.1-2.4-4.5-1.6-7.2 0.8-2.6 2.7-4.2 5.5-4.7q0.6-0.1 1.2-0.2 0.6 0 1.1-0.1c2.2-0.4 3.2-1.6 3.3-4q0.1-0.8 0.1-1.6 0-0.6 0.1-1.2c0-0.4 0.1-0.7 0.4-0.9q0.3-0.2 0.7-0.1c0.4 0 1 0.6 1 1l-0.1 0.5c0 1.3 0 2.8-0.3 4.1q-0.7 3.6-4.8 4.4-0.6 0.1-1.3 0.1-0.5 0.1-0.9 0.1c-2.5 0.4-4.4 2.6-4.2 5.1 0.2 2.7 2.2 4.7 4.9 4.7 3.5 0 7 0 10.5 0q2.2 0 4.5 0h0.1q0.3 0 0.6 0c0.7 0.1 1 0.4 1.1 1.1 0 0.6-0.4 1-1.1 1.1q-0.3 0-0.6 0h-0.2-7.3q-8.4 0-16.9 0c-2.2 0-3.9 1.2-4.7 3.2-0.7 2-0.1 4.2 1.5 5.6 0.9 0.7 2 1 3.4 1q0 0 0 0c9 0 18.1 0 27 0h5.2q0 0 0 0 0.1 0 0.2 0c0.3 0 0.5 0 0.8 0.1 0.3 0.2 0.8 0.6 0.7 1.1 0 0.4-0.5 0.7-0.8 0.9-0.2 0.1-0.5 0.1-0.7 0.1q-0.1 0-0.2 0h-8.1q-10.1 0-20.1 0c-2.3 0-4.1 1.4-4.7 3.6-0.6 2.1 0.2 4.4 2 5.5 0.8 0.5 1.8 0.8 3 0.8q0 0 0 0c8.5 0 17 0 25.2 0q0.1 0 0.2 0c0.5 0 1.4-0.1 1.4 1q0.1 0.5-0.2 0.7c-0.2 0.3-0.6 0.4-1.4 0.4q-1.3 0-2.6 0c-1.8 0.1-3.8 0.1-5.7 0-3.2-0.1-5.6 2.4-6 5z"/></svg>