<svg version="1.2" xmlns="http://www.w3.org/2000/svg" viewBox="0 0 59 56" width="59" height="56"><style>.a{fill:#5db8c9}</style><path fill-rule="evenodd" class="a" d="m58.8 36c-0.2 4.9-2.3 8.8-6.3 11.6-3.6 2.6-7.6 3.4-12 2.4q-0.7-0.1-1.4-0.3l-1.3-0.2-0.1 0.3c-1.7 4.3-4.4 6.2-8.3 6.1-3.7-0.1-6.1-2-7.7-6.1l-0.1-0.3-3.1 0.6c-4.2 0.9-8.6-0.1-12.1-2.8-3.6-2.7-5.7-6.8-5.9-11.1q0 0 0-0.1 0-0.1 0-0.2c0-1.2 0.2-1.5 0.9-1.5 0.6-0.1 1 0.1 1.1 1.3 0.3 3.6 1.5 6.4 3.7 8.6 3.8 3.8 8.2 4.9 13.2 3.4 4.9-1.5 7.9-5 9.1-10.4 0.3-1.6-0.2-2.6-1.7-3.5-5.1-2.7-8.2-5.8-9.9-9.8-0.9-1.9-1.4-3.9 0.2-5.5 2.3-2.4 4.5-3.2 6.9-2.4 3.9 1.3 7.6 1.3 11.3 0 2.3-0.8 6 0.6 7.2 2.7 0.5 0.9 0.7 2.1 0.6 3.1-0.5 2.9-2.1 5.5-4.9 7.9-1.9 1.6-3.9 3-5.9 4.2-1.2 0.7-1.6 1.5-1.5 2.9 0.3 2.9 1.7 5.6 4 7.8 2.2 2.1 5.1 3.4 8 3.5 3.2 0.2 6.3-0.7 8.8-2.5 2.5-1.8 4.2-4.4 4.8-7.4q0.3-1.3 0.4-2.5c0.1-1.1 0.4-1.5 1.1-1.4q0.5 0 0.7 0.2c0.3 0.3 0.3 0.8 0.2 1.4zm-29.1-3.4c3.1-0.8 9.7-7.4 11.2-10.2 1.5-2.8-3.1-5.5-5.9-3.8-2.8 1.7-8.6 0.4-8.6 0.4 0 0-8.3-2.4-7.6 2.3 1.3 8.1 10.9 11.3 10.9 11.3zm5.4 15.2c-1.3-1.4-2.5-2.7-3.9-4q-0.7-0.7-1.4-1.5l-0.4-0.4-0.3 0.5q-0.3 0.4-0.6 0.8c-0.5 0.7-0.9 1.3-1.4 1.9q-0.6 0.6-1.2 1.1c-0.5 0.4-1 0.9-1.4 1.4-0.5 0.5-0.6 1.5-0.4 2.2 0.6 2.3 2.9 4 5.4 4q0.1 0 0.2 0c2.6 0 4.8-1.6 5.6-3.9 0.2-0.6 0.2-1.6-0.2-2.1zm-26.7-38.8q-0.1-0.1-0.2-0.2c-0.3-0.4-0.6-0.8-0.6-1-0.1-1.9 0.7-3.7 2.1-5.1 1.5-1.6 3.7-2.6 5.9-2.6q0 0 0 0c4.3 0 8 3.7 8.1 8.1l-1 0.9q-0.1-0.2-0.3-0.3c-0.4-0.4-0.8-0.8-0.9-1.2-0.4-2.2-1.7-4-3.6-4.9q-1.1-0.5-2.3-0.5c-1.1 0-2.1 0.3-3.1 0.9-1.6 1-2.5 2.4-3 4.8-0.1 0.3-0.5 0.6-0.9 0.9q-0.1 0.1-0.2 0.2zm28.2 0q-0.1-0.1-0.2-0.2c-0.3-0.4-0.7-0.8-0.7-1.1 0-1.8 0.8-3.6 2.2-5 1.6-1.6 3.7-2.6 5.9-2.6 4.3 0.1 7.9 3.6 8 8.1l-0.9 0.9q-0.1-0.1-0.2-0.3c-0.4-0.3-0.8-0.7-0.9-1-0.7-3.2-2.6-5.2-5.3-5.5q-0.4 0-0.7 0c-2.4 0-4.5 1.3-5.5 3.6-0.1 0.3-0.2 0.6-0.2 0.9-0.1 0.4-0.1 0.7-0.2 0.9-0.3 0.4-0.7 0.8-1.1 1.2q-0.1 0.1-0.2 0.1zm-22.2 30.5q0.2-0.3 0.5-0.6 0.3 0.3 0.5 0.6c0.5 0.5 0.9 0.9 0.9 1.2 0 0.2-0.8 0.9-1.4 1-0.4 0.1-0.8 0.1-1.1-0.2q-0.3-0.3-0.3-0.8c0.1-0.3 0.4-0.7 0.9-1.2zm30.5 2.2q-0.2 0.3-0.5 0.6-0.3-0.3-0.6-0.6c-0.3-0.3-0.7-0.7-0.7-0.9 0.2-0.6 0.9-1.2 1.4-1.3 0.3 0 1.2 0.8 1.3 1.1 0 0.2-0.4 0.7-0.9 1.1zm-32.4-7q0.3 0.3 0.3 0.9c-0.1 0.3-0.4 0.7-0.8 1.2q-0.3 0.3-0.5 0.6-0.3-0.3-0.6-0.6c-0.4-0.5-0.8-0.9-0.8-1.2 0-0.2 0.8-0.9 1.3-1.1q0.2 0 0.4 0 0.4 0 0.7 0.2zm5.9 2.7q-0.3-0.3-0.5-0.6c-0.5-0.5-0.8-0.9-0.8-1.2q-0.1-0.6 0.3-0.9 0.2-0.2 0.7-0.2 0.1 0 0.3 0c0.6 0.2 1.3 0.9 1.4 1.1 0 0.3-0.4 0.7-0.9 1.2q-0.2 0.3-0.5 0.6zm23.8-1.8c0 0.3-0.4 0.7-0.8 1.2q-0.2 0.3-0.5 0.6-0.3-0.3-0.5-0.6c-0.5-0.5-0.8-0.9-0.9-1.2q0-0.5 0.3-0.9 0.3-0.2 0.7-0.2 0.2 0 0.3 0c0.6 0.1 1.4 0.9 1.4 1.1zm5.6 1.8q-0.3-0.4-0.5-0.7c-0.4-0.5-0.7-0.9-0.7-1.2q0-0.5 0.3-0.8 0.3-0.2 0.7-0.3 0.2 0 0.4 0.1c0.5 0.2 1.2 0.9 1.2 1.2 0 0.3-0.4 0.7-0.9 1.1q-0.2 0.3-0.5 0.6z"/></svg>