<svg version="1.2" xmlns="http://www.w3.org/2000/svg" viewBox="0 0 50 40" width="50" height="40">
	<title>Shape 1</title>
	<style>
		tspan { white-space:pre } 
		.s0 { fill: #4aa1b1 } 
	</style>
	<path id="Shape 1" class="s0" d="m21.7 0c0 1.7 0.1 3.4-0.5 5.1-0.3 1-0.9 1.7-1.9 2.2-1.4 0.7-2.8 1.6-4 2.7-1.9 1.7-3.4 3.7-3.9 6.3-0.1 0.3-0.1 0.7-0.2 1 3.6 0 7.2 0 10.8 0q0 0.3 0 0.5 0.1 8.1 0 16.1c0 3.1-1.8 5.5-4.7 6q-0.5 0.1-1 0.1-7.9 0-15.8 0-0.2 0-0.5 0 0-0.3 0-0.6c0-3.7 0-7.5 0-11.3 0.1-8.6 2.8-16.1 8.2-22.4 2.2-2.6 5.1-4.1 8.3-4.8 1.6-0.3 3.3-0.6 5-0.9 0 0 0.1 0 0.2 0zm27.9 0c0 1.8 0.2 3.5-0.4 5.1-0.4 1-1 1.7-1.9 2.2-1.5 0.8-3.1 1.7-4.4 3-1.9 1.8-3.3 3.9-3.7 6.7q0 0.1 0 0.3 5.4 0 10.8 0 0 0.3 0 0.5 0 8.1 0 16.1c0 3.1-1.9 5.5-4.7 6q-0.5 0.1-1 0.1-7.9 0-15.8 0-0.2 0-0.5 0 0-0.2 0-0.3c0-4.2-0.1-8.4 0-12.6 0.3-8.3 3-15.5 8.2-21.5 2.2-2.6 5.1-4 8.3-4.7 1.7-0.3 3.4-0.6 5.1-0.9z"/>
	<text id="" style="transform: matrix(1,0,0,1,118,21)" >
	</text>
</svg>